{"title":"Mr. Right 2015 1080p WEB-DL DD5.1 H264 - FGT","uid":14603830,"size":3516934049,"categoryP":"video","categoryS":"hd___movies","magnet":"?xt=urn:btih:c614aaaace8ce1ca85736148c6c3e855c729f028&amp;dn=Mr.+Right+2015+1080p+WEB-DL+DD5.1+H264+-+FGT&amp;tr=udp%3A%2F%2Ftracker.leechers-paradise.org%3A6969&amp;tr=udp%3A%2F%2Fzer0day.ch%3A1337&amp;tr=udp%3A%2F%2Fopen.demonii.com%3A1337&amp;tr=udp%3A%2F%2Ftracker.coppersurfer.tk%3A6969&amp;tr=udp%3A%2F%2Fexodus.desync.com%3A6969","seeders":1,"leechers":0,"uploader":"laned130","files":4,"time":1463071720,"description":"Mr. Right\r\n2015\r\nAnna Kendrick, Sam Rockwell, Tim Roth\r\nAction, Romance, Comedy\r\n \nhttps://kat.cr/mr-right-2015-1080p-web-dl-dd5-1-h264-fgt-t12394499.html\r\n \nhttp://www.imdb.com/title/tt3812348/\r\n\r\n\r\nVideo\r\nID : 1\r\nFormat : AVC\r\nFormat profile :   \r\nFormat settings, CABAC : Yes\r\nFormat settings, ReFrames : 5 frames\r\nCodec ID : V_MPEG4/ISO/AVC\r\nDuration : 1h 35mn\r\nBit rate : 4 433 Kbps\r\nWidth : 1 916 pixels\r\nHeight : 796 pixels\r\nDisplay aspect ratio : 2.40:1\r\nFrame rate : 23.976 fps\r\nColor space : YUV\r\nChroma subsampling : 4:2:0\r\nBit depth : 8 bits\r\nScan type : Progressive\r\nBits/(Pixel*Frame) : 0.121\r\nStream size : 2.95 GiB (90%)\r\nTitle : Mr.Right.2015.1080p.WEB-DL.DD5.1.H264-FGT\r\nLanguage : English\r\nDefault : Yes\r\nForced : No\r\nColor range : Limited\r\nColor primaries : BT.709\r\nTransfer characteristics : BT.709\r\nMatrix coefficients : BT.709\r\n\r\nAudio\r\nID : 2\r\nFormat : AC-3\r\nFormat/Info : Audio Coding 3\r\nMode extension : CM (complete main)\r\nFormat settings, Endianness : Big\r\nCodec ID : A_AC3\r\nDuration : 1h 35mn\r\nBit rate mode : Constant\r\nBit rate : 384 Kbps\r\nChannel(s) : 6 channels\r\nChannel positions : Front: L C R, Side: L R, LFE\r\nSampling rate : 48.0 KHz\r\nFrame rate : 31.250 fps (1536 spf)\r\nCompression mode : Lossy\r\nStream size : 262 MiB (8%)\r\nTitle : Mr.Right.2015.1080p.WEB-DL.DD5.1.H264-FGT\r\nLanguage : English\r\nDefault : Yes\r\nForced : No\r\n\r\nText\r\nID : 3\r\nFormat : UTF-8\r\nCodec ID : S_TEXT/UTF8\r\nCodec ID/Info : UTF-8 Plain Text\r\nLanguage : English\r\nDefault : Yes\r\nForced : No\r\n\r\nTransferred from KAT. I had no hand here, other than uploading it somewhere better ;-)","torrent":{"xt":"urn:btih:c614aaaace8ce1ca85736148c6c3e855c729f028","amp;dn":"Mr.+Right+2015+1080p+WEB-DL+DD5.1+H264+-+FGT","amp;tr":["udp%3A%2F%2Ftracker.leechers-paradise.org%3A6969","udp%3A%2F%2Fzer0day.ch%3A1337","udp%3A%2F%2Fopen.demonii.com%3A1337","udp%3A%2F%2Ftracker.coppersurfer.tk%3A6969","udp%3A%2F%2Fexodus.desync.com%3A6969"],"infoHash":"c614aaaace8ce1ca85736148c6c3e855c729f028","infoHashBuffer":{"type":"Buffer","data":[198,20,170,170,206,140,225,202,133,115,97,72,198,195,232,85,199,41,240,40]},"announce":[],"urlList":[]}}